<?xml version="1.0" standalone="no"?>
<!DOCTYPE svg PUBLIC "-//W3C//DTD SVG 20010904//EN"
 "http://www.w3.org/TR/2001/REC-SVG-20010904/DTD/svg10.dtd">
<svg version="1.0" xmlns="http://www.w3.org/2000/svg"
 width="335.000000pt" height="142.000000pt" viewBox="0 0 335.000000 142.000000"
 preserveAspectRatio="xMidYMid meet">

<g transform="translate(0.000000,142.000000) scale(0.100000,-0.100000)"
fill="#000000" stroke="none">
<path d="M1630 1342 c-58 -60 -96 -140 -128 -269 l-26 -103 -36 0 c-41 0 -60
-14 -60 -46 0 -24 17 -34 60 -34 l29 0 -1 -80 c-1 -63 -4 -80 -16 -80 -8 0
-39 -22 -69 -50 -60 -55 -114 -75 -177 -67 -48 7 -65 23 -77 75 -18 79 18 186
67 198 45 11 57 -2 51 -51 -6 -37 -3 -46 12 -55 26 -13 66 19 75 60 18 94 -85
160 -177 114 -79 -40 -134 -119 -144 -207 -11 -98 -117 -163 -173 -107 -17 17
-20 33 -20 104 0 80 23 228 54 343 16 61 8 79 -41 89 -26 5 -37 1 -57 -19 -14
-15 -26 -35 -26 -45 0 -46 -65 -274 -99 -347 -54 -115 -116 -159 -199 -140
-103 22 -131 202 -62 388 42 111 152 202 275 227 62 13 182 8 242 -9 43 -12
86 18 81 58 -2 20 -12 29 -43 40 -65 22 -229 26 -309 7 -258 -61 -430 -295
-414 -563 5 -88 27 -139 80 -190 98 -94 243 -82 327 28 40 53 56 59 65 23 17
-68 80 -114 154 -114 51 0 85 13 132 50 21 17 42 30 48 30 5 0 24 -13 41 -29
43 -40 92 -55 161 -48 65 6 115 29 190 88 l54 42 15 -23 c52 -78 101 -110 170
-110 48 0 101 20 147 55 42 32 50 31 68 -3 16 -31 53 -52 92 -52 29 0 94 31
113 54 21 25 48 19 59 -14 14 -38 56 -51 82 -24 10 11 26 46 35 79 30 107 94
215 127 215 22 0 23 -18 2 -127 -12 -65 -13 -91 -4 -118 24 -74 102 -86 194
-30 32 19 62 35 65 35 4 0 20 -13 36 -30 34 -36 83 -47 137 -31 22 7 43 10 46
6 4 -3 -39 -50 -95 -103 -80 -77 -108 -111 -132 -162 -42 -89 -41 -132 4 -177
32 -32 39 -35 77 -30 49 7 84 30 120 83 34 49 82 175 107 283 11 46 21 84 23
86 2 1 45 30 95 64 106 70 130 99 113 130 -13 25 -18 23 -108 -43 -34 -25 -64
-46 -67 -46 -10 0 -5 91 11 190 18 115 13 130 -41 130 -18 0 -38 7 -45 15 -38
46 -177 -23 -235 -115 -13 -21 -31 -63 -40 -93 -28 -98 -144 -179 -161 -113
-3 13 4 75 16 138 27 142 25 179 -11 192 -57 20 -124 -26 -202 -137 -38 -55
-42 -58 -45 -35 -2 14 4 56 13 93 8 36 13 71 9 76 -10 17 -60 9 -81 -13 -22
-24 -47 -106 -58 -195 -6 -45 -13 -58 -55 -97 -51 -48 -93 -60 -104 -30 -12
30 -6 112 15 213 23 116 18 134 -35 129 -40 -4 -59 -42 -82 -163 -15 -78 -22
-95 -53 -128 -60 -64 -117 -82 -174 -56 -41 19 -51 47 -55 161 l-4 106 102 4
c92 3 104 5 120 26 31 38 16 52 -56 52 -37 0 -64 4 -64 10 0 6 18 33 39 60 50
63 81 145 81 215 0 94 -27 134 -89 135 -28 0 -43 -9 -81 -48z m88 -96 c4 -65
-29 -153 -78 -209 -21 -23 -41 -39 -46 -34 -10 10 30 195 55 252 17 38 25 46
43 43 20 -3 23 -10 26 -52z m1192 -366 c0 -41 -44 -220 -58 -240 -21 -28 -66
-38 -88 -19 -20 17 -18 115 5 164 22 50 84 105 116 105 14 0 25 -4 25 -10z
m-99 -599 c-28 -93 -59 -136 -96 -136 -28 0 -30 3 -33 42 -4 56 23 106 90 168
l53 50 3 -28 c2 -16 -6 -59 -17 -96z"/>
<path d="M1926 1175 c-53 -49 -23 -115 52 -115 68 0 111 89 60 124 -33 24 -81
20 -112 -9z"/>
</g>
</svg>
